<?xml version="1.0" encoding="UTF-8" standalone="no"?>
<!-- Creator: fig2dev Version 3.2.8b -->
<!-- CreationDate: 2025-12-28 13:38:34 -->
<!-- Magnification: 1.05 -->
<svg	xmlns="http://www.w3.org/2000/svg"
	xmlns:xlink="http://www.w3.org/1999/xlink"
	width="604pt" height="257pt"
	viewBox="408 720 9575 4065">
<g fill="none">
<!-- Line -->
<rect x="3375" y="1800" width="810" height="1350" fill="#b46100"/>
<!-- Line -->
<rect x="450" y="1800" width="900" height="1350" fill="#00ffff"/>
<!-- Line -->
<rect x="1350" y="1800" width="900" height="1350" fill="#00d100"/>
<!-- Line -->
<rect x="2250" y="1800" width="1125" height="1350" fill="#cfcfcf"/>
<!-- Line -->
<defs>
<clipPath id="cp0">
	<path clip-rule="evenodd" d="M 408,720 H 9983 V 4785 H 408 z
		M 2220,3421 2280,3421 2257,3278 2243,3278z"/>
</clipPath>
</defs>
<polyline points=" 2700,4140 2250,4140 2250,3285" clip-path="url(#cp0)"
	stroke="#000000" stroke-width="8px"/>
<!-- Forward arrow to point 2250,3285 -->
<polygon points=" 2280,3421 2250,3301 2220,3421 2280,3421"
	stroke="#000000" stroke-width="8px" stroke-miterlimit="8" fill="#000000"/>
<!-- Line -->
<defs>
<clipPath id="cp1">
	<path clip-rule="evenodd" d="M 408,720 H 9983 V 4785 H 408 z
		M 1320,3421 1380,3421 1357,3278 1343,3278z"/>
</clipPath>
</defs>
<polyline points=" 2700,4410 1350,4410 1350,3285" clip-path="url(#cp1)"
	stroke="#000000" stroke-width="8px"/>
<!-- Forward arrow to point 1350,3285 -->
<polygon points=" 1380,3421 1350,3301 1320,3421 1380,3421"
	stroke="#000000" stroke-width="8px" stroke-miterlimit="8" fill="#000000"/>
<!-- Line -->
<defs>
<clipPath id="cp2">
	<path clip-rule="evenodd" d="M 408,720 H 9983 V 4785 H 408 z
		M 420,3421 480,3421 457,3278 443,3278z"/>
</clipPath>
</defs>
<polyline points=" 2700,4725 450,4725 450,3285" clip-path="url(#cp2)"
	stroke="#000000" stroke-width="8px"/>
<!-- Forward arrow to point 450,3285 -->
<polygon points=" 480,3421 450,3301 420,3421 480,3421"
	stroke="#000000" stroke-width="8px" stroke-miterlimit="8" fill="#000000"/>
<!-- Line -->
<defs>
<clipPath id="cp3">
	<path clip-rule="evenodd" d="M 408,720 H 9983 V 4785 H 408 z
		M 3345,3421 3405,3421 3382,3278 3368,3278z"/>
</clipPath>
</defs>
<polyline points=" 3060,3600 3375,3600 3375,3285" clip-path="url(#cp3)"
	stroke="#000000" stroke-width="8px"/>
<!-- Forward arrow to point 3375,3285 -->
<polygon points=" 3405,3421 3375,3301 3345,3421 3405,3421"
	stroke="#000000" stroke-width="8px" stroke-miterlimit="8" fill="#000000"/>
<!-- Line -->
<defs>
<clipPath id="cp4">
	<path clip-rule="evenodd" d="M 408,720 H 9983 V 4785 H 408 z
		M 4110,3421 4170,3421 4147,3278 4133,3278z"/>
</clipPath>
</defs>
<polyline points=" 3645,3870 4140,3870 4140,3285" clip-path="url(#cp4)"
	stroke="#000000" stroke-width="8px"/>
<!-- Forward arrow to point 4140,3285 -->
<polygon points=" 4170,3421 4140,3301 4110,3421 4170,3421"
	stroke="#000000" stroke-width="8px" stroke-miterlimit="8" fill="#000000"/>
<!-- Line -->
<rect x="4995" y="1800" width="900" height="1350" fill="#d100d1"/>
<!-- Line -->
<defs>
<clipPath id="cp5">
	<path clip-rule="evenodd" d="M 408,720 H 9983 V 4785 H 408 z
		M 5865,3421 5925,3421 5902,3278 5888,3278z"/>
</clipPath>
</defs>
<polyline points=" 6345,3870 5895,3870 5895,3285" clip-path="url(#cp5)"
	stroke="#000000" stroke-width="8px"/>
<!-- Forward arrow to point 5895,3285 -->
<polygon points=" 5925,3421 5895,3301 5865,3421 5925,3421"
	stroke="#000000" stroke-width="8px" stroke-miterlimit="8" fill="#000000"/>
<!-- Line -->
<defs>
<clipPath id="cp6">
	<path clip-rule="evenodd" d="M 408,720 H 9983 V 4785 H 408 z
		M 4965,3421 5025,3421 5002,3278 4988,3278z"/>
</clipPath>
</defs>
<polyline points=" 6345,4140 4995,4140 4995,3285" clip-path="url(#cp6)"
	stroke="#000000" stroke-width="8px"/>
<!-- Forward arrow to point 4995,3285 -->
<polygon points=" 5025,3421 4995,3301 4965,3421 5025,3421"
	stroke="#000000" stroke-width="8px" stroke-miterlimit="8" fill="#000000"/>
<!-- Line -->
<defs>
<clipPath id="cp7">
	<path clip-rule="evenodd" d="M 408,720 H 9983 V 4785 H 408 z
		M 6270,3421 6330,3421 6307,3278 6293,3278z"/>
</clipPath>
</defs>
<polyline points=" 6525,3600 6300,3600 6300,3285" clip-path="url(#cp7)"
	stroke="#000000" stroke-width="8px"/>
<!-- Forward arrow to point 6300,3285 -->
<polygon points=" 6330,3421 6300,3301 6270,3421 6330,3421"
	stroke="#000000" stroke-width="8px" stroke-miterlimit="8" fill="#000000"/>
<!-- Line -->
<rect x="4185" y="1800" width="810" height="1350" fill="#fff7be"/>
<!-- Line -->
<rect x="5895" y="1800" width="405" height="1350" fill="#cfcfcf"/>
<!-- Line -->
<rect x="6300" y="1800" width="900" height="1350" fill="#fff7be"/>
<!-- Text -->
<text xml:space="preserve" x="2745" y="3645" fill="#000000" font-family="Helvetica" font-style="normal" font-weight="normal" font-size="144" text-anchor="start">SP</text>
<!-- Text -->
<text xml:space="preserve" x="2745" y="3915" fill="#000000" font-family="Helvetica" font-style="normal" font-weight="normal" font-size="144" text-anchor="start">RAMEND</text>
<!-- Text -->
<text xml:space="preserve" x="2835" y="4185" fill="#000000" font-family="Helvetica" font-style="normal" font-weight="normal" font-size="144" text-anchor="start">__bss_end</text>
<!-- Text -->
<text xml:space="preserve" x="2835" y="4455" fill="#000000" font-family="Helvetica" font-style="normal" font-weight="normal" font-size="144" text-anchor="start">__data_end == __bss_start</text>
<!-- Text -->
<text xml:space="preserve" x="2835" y="4770" fill="#000000" font-family="Helvetica" font-style="normal" font-weight="normal" font-size="144" text-anchor="start">__data_start</text>
<!-- Text -->
<text xml:space="preserve" x="6615" y="3645" fill="#000000" font-family="Helvetica" font-style="normal" font-weight="normal" font-size="144" text-anchor="start">*(__malloc_heap_end) == __heap_end</text>
<!-- Text -->
<text xml:space="preserve" x="6480" y="3915" fill="#000000" font-family="Helvetica" font-style="normal" font-weight="normal" font-size="144" text-anchor="start">*(__brkval)</text>
<!-- Text -->
<text xml:space="preserve" x="6435" y="4185" fill="#000000" font-family="Helvetica" font-style="normal" font-weight="normal" font-size="144" text-anchor="start">*(__malloc_heap_start) == __heap_start</text>
<!-- Line -->
<defs>
<clipPath id="cp8">
	<path clip-rule="evenodd" d="M 408,720 H 9983 V 4785 H 408 z
		M 3647,2310 3647,2190 3365,2240 3365,2261z"/>
</clipPath>
</defs>
<polyline points=" 4050,2250 3375,2250" clip-path="url(#cp8)"
	stroke="#000000" stroke-width="15px"/>
<!-- Forward arrow to point 3375,2250 -->
<polygon points=" 3647,2190 3407,2250 3647,2310 3647,2190"
	stroke="#000000" stroke-width="15px" stroke-miterlimit="8" fill="#000000"/>
<!-- Line -->
<rect x="450" y="1800" width="6750" height="1350"
	stroke="#000000" stroke-width="8px"/>
<!-- Line -->
<defs>
<clipPath id="cp9">
	<path clip-rule="evenodd" d="M 408,720 H 9983 V 4785 H 408 z
		M 5578,2190 5578,2310 5861,2261 5861,2240z"/>
</clipPath>
</defs>
<polyline points=" 5130,2250 5850,2250" clip-path="url(#cp9)"
	stroke="#000000" stroke-width="15px"/>
<!-- Forward arrow to point 5850,2250 -->
<polygon points=" 5578,2310 5818,2250 5578,2190 5578,2310"
	stroke="#000000" stroke-width="15px" stroke-miterlimit="8" fill="#000000"/>
<!-- Line -->
<polyline points=" 4185,1800 4185,3150"
	stroke="#000000" stroke-width="8px"/>
<!-- Text -->
<g transform="translate(4140,1665) rotate(-90)" >
<text xml:space="preserve" x="0" y="0" fill="#000000" font-family="Helvetica" font-style="normal" font-weight="normal" font-size="144" text-anchor="start">0x10FF</text>
</g><!-- Text -->
<g transform="translate(630,1620) rotate(-90)" >
<text xml:space="preserve" x="0" y="0" fill="#000000" font-family="Helvetica" font-style="normal" font-weight="normal" font-size="144" text-anchor="start">0x0100</text>
</g><!-- Text -->
<text xml:space="preserve" x="3555" y="2700" fill="#000000" font-family="Helvetica" font-style="normal" font-weight="normal" font-size="144" text-anchor="start">stack</text>
<!-- Text -->
<text xml:space="preserve" x="1305" y="1530" fill="#000000" font-family="Helvetica" font-style="normal" font-weight="normal" font-size="216" text-anchor="start">on-board RAM</text>
<!-- Text -->
<g transform="translate(4410,1665) rotate(-90)" >
<text xml:space="preserve" x="0" y="0" fill="#000000" font-family="Helvetica" font-style="normal" font-weight="normal" font-size="144" text-anchor="start">0x1100</text>
</g><!-- Text -->
<g transform="translate(7155,1665) rotate(-90)" >
<text xml:space="preserve" x="0" y="0" fill="#000000" font-family="Helvetica" font-style="normal" font-weight="normal" font-size="144" text-anchor="start">0xFFFF</text>
</g><!-- Text -->
<text xml:space="preserve" x="675" y="2430" fill="#000000" font-family="Helvetica" font-style="normal" font-weight="normal" font-size="144" text-anchor="start">.data</text>
<!-- Text -->
<text xml:space="preserve" x="1440" y="2700" fill="#000000" font-family="Helvetica" font-style="normal" font-weight="normal" font-size="144" text-anchor="start">variables</text>
<!-- Text -->
<text xml:space="preserve" x="540" y="2700" fill="#000000" font-family="Helvetica" font-style="normal" font-weight="normal" font-size="144" text-anchor="start">variables</text>
<!-- Text -->
<text xml:space="preserve" x="1620" y="2430" fill="#000000" font-family="Helvetica" font-style="normal" font-weight="normal" font-size="144" text-anchor="start">.bss</text>
<!-- Text -->
<text xml:space="preserve" x="5175" y="2700" fill="#000000" font-family="Helvetica" font-style="normal" font-weight="normal" font-size="144" text-anchor="start">heap</text>
<!-- Text -->
<g transform="translate(5085,1665) rotate(-90)" >
<text xml:space="preserve" x="0" y="0" fill="#000000" font-family="Helvetica" font-style="normal" font-weight="normal" font-size="144" text-anchor="start">0x2000</text>
</g><!-- Text -->
<text xml:space="preserve" x="4815" y="945" fill="#000000" font-family="Helvetica" font-style="normal" font-weight="normal" font-size="216" text-anchor="start">external RAM</text>
<!-- Text -->
<g transform="translate(6345,1665) rotate(-90)" >
<text xml:space="preserve" x="0" y="0" fill="#000000" font-family="Helvetica" font-style="normal" font-weight="normal" font-size="144" text-anchor="start">0x3FFF</text>
</g></g>
</svg>
